<?xml version="1.0" encoding="utf-8"?>
<svg xmlns="http://www.w3.org/2000/svg" xmlns:xlink="http://www.w3.org/1999/xlink" style="margin: auto; background: rgba(0, 0, 0, 0) none repeat scroll 0% 0%; display: block; shape-rendering: auto;" width="110px" height="110px" viewBox="0 0 100 100" preserveAspectRatio="xMidYMid">
<g transform="translate(50 50)">
<g>
<animateTransform attributeName="transform" type="rotate" values="0;20" keyTimes="0;1" dur="0.2237136465324385s" repeatCount="indefinite"></animateTransform><path d="M29.795133830879163 -3.5 L37.795133830879166 -3.5 L37.795133830879166 3.5 L29.795133830879163 3.5 A30 30 0 0 1 29.19533789784556 6.9016117704940925 L29.19533789784556 6.9016117704940925 L36.71287886413283 9.637772917099442 L34.31873786085315 16.215621262600802 L26.801196894565884 13.479460115995451 A30 30 0 0 1 25.07415333703414 16.470787304524936 L25.07415333703414 16.470787304524936 L31.202508881985963 21.61308818201725 L26.70299561418019 26.975399283850095 L20.574640069228366 21.83309840635778 A30 30 0 0 1 17.92865582868512 24.053342806698513 L17.92865582868512 24.053342806698513 L21.92865582868512 30.981546036974024 L15.86647800219405 34.481546036974024 L11.86647800219405 27.553342806698513 A30 30 0 0 1 8.620697828617203 28.734710176851877 L8.620697828617203 28.734710176851877 L10.009883249952647 36.61317220094954 L3.1162289788671904 37.82870944461805 L1.7270435575317464 29.950247420520387 A30 30 0 0 1 -1.7270435575317429 29.950247420520387 L-1.7270435575317429 29.950247420520387 L-3.1162289788671855 37.828709444618056 L-10.00988324995264 36.61317220094954 L-8.620697828617198 28.734710176851877 A30 30 0 0 1 -11.86647800219404 27.553342806698517 L-11.86647800219404 27.553342806698517 L-15.866478002194038 34.481546036974024 L-21.92865582868511 30.98154603697403 L-17.92865582868511 24.05334280669852 A30 30 0 0 1 -20.57464006922836 21.833098406357784 L-20.57464006922836 21.833098406357784 L-26.702995614180182 26.975399283850102 L-31.202508881985956 21.613088182017258 L-25.074153337034133 16.47078730452494 A30 30 0 0 1 -26.80119689456588 13.479460115995455 L-26.80119689456588 13.479460115995455 L-34.31873786085315 16.215621262600806 L-36.712878864132826 9.63777291709945 L-29.19533789784556 6.901611770494099 A30 30 0 0 1 -29.795133830879163 3.500000000000003 L-29.795133830879163 3.500000000000003 L-37.795133830879166 3.500000000000004 L-37.795133830879166 -3.499999999999995 L-29.795133830879166 -3.499999999999996 A30 30 0 0 1 -29.19533789784556 -6.901611770494091 L-29.19533789784556 -6.901611770494091 L-36.71287886413283 -9.63777291709944 L-34.318737860853155 -16.2156212626008 L-26.801196894565884 -13.47946011599545 A30 30 0 0 1 -25.07415333703414 -16.470787304524936 L-25.07415333703414 -16.470787304524936 L-31.202508881985963 -21.61308818201725 L-26.70299561418019 -26.975399283850095 L-20.574640069228366 -21.83309840635778 A30 30 0 0 1 -17.928655828685127 -24.053342806698506 L-17.928655828685127 -24.053342806698506 L-21.92865582868513 -30.981546036974013 L-15.866478002194063 -34.48154603697402 L-11.866478002194059 -27.55334280669851 A30 30 0 0 1 -8.6206978286172 -28.734710176851877 L-8.6206978286172 -28.734710176851877 L-10.009883249952642 -36.61317220094954 L-3.1162289788671864 -37.828709444618056 L-1.7270435575317435 -29.950247420520387 A30 30 0 0 1 1.7270435575317327 -29.950247420520387 L1.7270435575317327 -29.950247420520387 L3.1162289788671726 -37.828709444618056 L10.009883249952626 -36.61317220094954 L8.620697828617187 -28.734710176851877 A30 30 0 0 1 11.866478002194048 -27.553342806698513 L11.866478002194048 -27.553342806698513 L15.86647800219405 -34.481546036974024 L21.92865582868512 -30.981546036974024 L17.92865582868512 -24.053342806698513 A30 30 0 0 1 20.574640069228355 -21.833098406357784 L20.574640069228355 -21.833098406357784 L26.70299561418018 -26.975399283850102 L31.202508881985956 -21.613088182017258 L25.074153337034133 -16.470787304524944 A30 30 0 0 1 26.80119689456587 -13.47946011599547 L26.80119689456587 -13.47946011599547 L34.31873786085313 -16.215621262600827 L36.712878864132826 -9.637772917099472 L29.195337897845558 -6.901611770494116 A30 30 0 0 1 29.795133830879163 -3.5000000000000067 M0 -20A20 20 0 1 0 0 20 A20 20 0 1 0 0 -20" fill="#9f8f2d"></path></g></g>
<!-- [ldio] generated by https://loading.io/ --></svg>